# xmcd CD database file
#
# Track frame offsets:
#	150
#	30072
#	44122
#	60417
#	92380
#	123057
#	151327
#	175102
#
# Disc length: 2638 seconds
#
# Revision: 0
# Processed by: cddbd v1.5.2PL0 Copyright (c) Steve Scherf et al.
# Submitted via: CDex 1.70beta2
#
DISCID=500a4c08
DTITLE=岡本博文 - OKAMOTO HIROFUMI NEW GUITAR BAND
DYEAR=1993
DGENRE=Jazz
TTITLE0=Laforle
TTITLE1=Suspence
TTITLE2=interlude
TTITLE3=Story Of Rainbow Island
TTITLE4=Day Break
TTITLE5=Westerners
TTITLE6=Tomorrow Better
TTITLE7=Passion City Flamenco
EXTD=YEAR: 1993
EXTT0=
EXTT1=
EXTT2=
EXTT3=
EXTT4=
EXTT5=
EXTT6=
EXTT7=
PLAYORDER=
